<?xml version="1.0" standalone="no"?>
<!DOCTYPE svg PUBLIC "-//W3C//DTD SVG 20010904//EN"
 "http://www.w3.org/TR/2001/REC-SVG-20010904/DTD/svg10.dtd">
<svg version="1.0" xmlns="http://www.w3.org/2000/svg"
 width="750.000000pt" height="750.000000pt" viewBox="0 0 750.000000 750.000000"
 preserveAspectRatio="xMidYMid meet">

<g transform="translate(0.000000,750.000000) scale(0.100000,-0.100000)"
fill="#fffafa" stroke="none">
<path d="M3131 7339 c-29 -5 -83 -23 -120 -40 -61 -28 -98 -62 -454 -422 -416
-421 -429 -437 -456 -565 -8 -37 -11 -539 -11 -1711 l0 -1658 21 -27 20 -26
364 0 363 0 26 31 26 31 0 1446 0 1447 113 126 c379 426 430 478 497 512 l65
32 976 3 977 2 21 -26 21 -27 -2 -1691 -3 -1691 -26 -56 c-33 -69 -95 -134
-158 -163 -43 -20 -66 -21 -371 -26 -312 -5 -327 -6 -376 -28 -64 -29 -126
-92 -156 -157 -21 -46 -23 -70 -29 -300 -6 -224 -9 -260 -33 -349 -77 -295
-272 -532 -539 -656 -144 -66 -230 -84 -402 -84 -201 0 -355 34 -545 121 -357
163 -677 525 -818 923 -17 47 -33 93 -37 102 -4 10 -22 27 -40 38 -33 20 -44
21 -509 18 l-475 -3 -23 -22 c-74 -74 -2 -372 177 -739 186 -379 487 -730 845
-984 367 -262 799 -427 1250 -480 104 -12 418 -15 521 -5 453 45 887 200 1261
452 313 211 604 513 803 834 162 261 304 619 365 922 58 290 54 124 57 2411 3
1908 2 2104 -13 2155 -52 181 -185 302 -364 330 -81 13 -2730 13 -2809 0z"/>
<path d="M3707 5829 c-105 -12 -177 -94 -177 -205 0 -82 36 -140 111 -178 l53
-26 437 0 c482 0 493 1 556 62 97 94 72 264 -48 325 -45 24 -47 24 -459 26
-228 1 -441 -1 -473 -4z"/>
<path d="M3650 4824 c-83 -36 -124 -106 -118 -200 5 -78 41 -136 107 -171 l44
-23 711 0 c671 0 713 1 751 19 137 63 166 231 58 333 -63 60 -37 58 -810 58
-610 -1 -713 -3 -743 -16z"/>
<path d="M3669 3836 c-90 -32 -139 -101 -139 -195 0 -95 67 -179 159 -200 29
-7 200 -10 456 -8 l410 2 44 25 c24 14 58 42 75 63 26 32 31 48 34 105 5 88
-23 144 -93 187 l-48 30 -431 2 c-335 2 -439 0 -467 -11z"/>
</g>
</svg>
